Coordinates
version=1
nRows=10
nColumns=22
inDegrees=yes

Units are S.I. units (second, meters, Newtons, ...)
If the header above contains a line with 'inDegrees', this indicates whether rotational values are in degrees (yes) or radians (no).

endheader
time	pelvis_tilt	pelvis_list	pelvis_rotation	pelvis_tx	pelvis_ty	pelvis_tz	hip_flexion_r	hip_adduction_r	hip_rotation_r	knee_angle_r	ankle_angle_r	subtalar_angle_r	hip_flexion_l	hip_adduction_l	hip_rotation_l	knee_angle_l	ankle_angle_l	subtalar_angle_l	lumbar_extension	lumbar_bending	lumbar_rotation
      5.47000000	     -3.60203740	      0.32320636	    257.81969575	     -0.74673478	      0.93345108	      0.32394354	     16.53607213	     -2.77957133	      2.21087898	    -71.09116133	      3.95343938	     10.45961996	     22.65869891	      7.80609140	      3.27873348	    -31.46286672	      3.66341294	    -18.42462986	     -3.33849714	      3.70439152	     -4.63030278
      5.48000000	     -3.44232549	      0.24024342	    258.85553430	     -0.74500870	      0.93447094	      0.33377682	     17.85085512	     -2.92186344	      2.33371100	    -71.50584754	      4.85135212	      9.56712215	     21.63804355	      8.47305482	      4.09593427	    -30.92382755	      3.96891807	    -18.57980306	     -3.20769242	      3.58564332	     -5.12660067
      5.49000000	     -3.35752611	      0.07601600	    259.95704643	     -0.74325760	      0.93573699	      0.34369864	     18.95315752	     -2.98269965	      2.44438294	    -71.63681919	      5.66293794	      8.81427015	     20.44482834	      9.06374573	      5.03573553	    -30.31366557	      4.20784127	    -18.72798426	     -3.16786592	      3.51729014	     -5.62917707
      5.50000000	     -3.35584942	     -0.18469043	    261.10147294	     -0.74156232	      0.93722318	      0.35369699	     19.82949959	     -2.93250547	      2.55930731	    -71.50329862	      6.40090154	      8.02594304	     19.08674783	      9.54494796	      6.04252853	    -29.67376236	      4.49194428	    -18.89698544	     -3.23988437	      3.50772368	     -6.15072893
      5.51000000	     -3.44101414	     -0.51553417	    262.31747338	     -0.73983720	      0.93888906	      0.36374412	     20.50888188	     -2.78150937	      2.62950298	    -71.11333538	      7.02105071	      7.42314329	     17.59120110	      9.91665485	      7.18780366	    -28.99490660	      4.71998204	    -19.04498496	     -3.39038430	      3.57805384	     -6.70515456
      5.52000000	     -3.55004778	     -0.92115935	    263.53319363	     -0.73815891	      0.94063763	      0.37377632	     21.01824873	     -2.56932439	      2.73126703	    -70.50096601	      7.58373870	      6.64529063	     15.98527974	     10.20239824	      8.32405271	    -28.28709317	      5.04019317	    -19.21328102	     -3.62717311	      3.65974808	     -7.24847159
      5.53000000	     -3.66305486	     -1.31422516	    264.77402058	     -0.73639306	      0.94225591	      0.38360996	     21.49339918	     -2.32323846	      2.84468280	    -69.72496957	      8.07827488	      5.98459842	     14.40422868	     10.43815345	      9.54225712	    -27.59682706	      5.31148496	    -19.33667519	     -3.86704686	      3.75845611	     -7.79389064
      5.54000000	     -3.74873846	     -1.66854970	    266.01908223	     -0.73453148	      0.94366513	      0.39321660	     21.97369623	     -2.07742006	      2.99153593	    -68.80323294	      8.51602322	      5.43466127	     12.89110760	     10.64753931	     10.78531769	    -26.93035439	      5.56113939	    -19.41188691	     -4.07999392	      3.84370533	     -8.32070319
      5.55000000	     -3.76360580	     -1.97879583	    267.24356091	     -0.73260549	      0.94478923	      0.40255643	     22.49103772	     -1.86716440	      3.21534517	    -67.78585001	      8.94343365	      4.85961649	     11.46816319	     10.87471318	     12.00386155	    -26.30317891	      5.86684829	    -19.44622689	     -4.26649946	      3.86268394	     -8.82012076
      5.56000000	     -3.72273516	     -2.22318300	    268.47020743	     -0.73057826	      0.94563891	      0.41166224	     23.05467572	     -1.69798616	      3.47319673	    -66.66642546	      9.34627765	      4.32994559	     10.14782845	     11.10730706	     13.19915846	    -25.70153586	      6.17457632	    -19.41473884	     -4.39776759	      3.83213734	     -9.29647704
